<svg width="24" height="24" viewBox="0 0 24 24" fill="none" xmlns="http://www.w3.org/2000/svg">
<g clip-path="url(#clip0_55_12312)">
<path d="M12.7196 2.02995C6.62958 1.59995 1.59958 6.62995 2.02958 12.7199C2.38958 18.0099 7.00958 21.9999 12.3096 21.9999H15.9996C16.5496 21.9999 16.9996 21.5499 16.9996 20.9999C16.9996 20.4499 16.5496 19.9999 15.9996 19.9999H12.3296C8.59958 19.9999 5.17958 17.5799 4.24958 13.9699C2.75958 8.16995 8.15958 2.75995 13.9596 4.25995C17.5796 5.17995 19.9996 8.59995 19.9996 12.3299V13.4299C19.9996 14.2199 19.2896 14.9999 18.4996 14.9999C17.7096 14.9999 16.9996 14.2199 16.9996 13.4299V12.1799C16.9996 9.66995 15.2196 7.40995 12.7396 7.05995C9.33958 6.56995 6.46958 9.50995 7.07958 12.9299C7.41958 14.8399 8.90958 16.4199 10.7996 16.8699C12.6396 17.2999 14.3896 16.7099 15.5396 15.5399C16.4296 16.7599 18.2096 17.3999 19.8396 16.7499C21.1796 16.2199 21.9996 14.8499 21.9996 13.4099V12.3199C21.9996 7.00995 18.0096 2.38995 12.7196 2.02995V2.02995ZM11.9996 14.9999C10.3396 14.9999 8.99958 13.6599 8.99958 11.9999C8.99958 10.3399 10.3396 8.99995 11.9996 8.99995C13.6596 8.99995 14.9996 10.3399 14.9996 11.9999C14.9996 13.6599 13.6596 14.9999 11.9996 14.9999Z" fill="#323232"/>
</g>
<defs>
<clipPath id="clip0_55_12312">
<rect width="24" height="24" fill="white"/>
</clipPath>
</defs>
</svg>
