<svg width="20" height="20" viewBox="0 0 20 20" fill="none" xmlns="http://www.w3.org/2000/svg">
<path fill-rule="evenodd" clip-rule="evenodd" d="M4.16667 4.79167C3.59137 4.79167 3.125 5.25804 3.125 5.83334V14.1667C3.125 14.742 3.59137 15.2083 4.16667 15.2083H15.8333C16.4086 15.2083 16.875 14.742 16.875 14.1667V5.83334C16.875 5.25804 16.4086 4.79167 15.8333 4.79167H4.16667ZM1.875 5.83334C1.875 4.56769 2.90101 3.54167 4.16667 3.54167H15.8333C17.099 3.54167 18.125 4.56769 18.125 5.83334V14.1667C18.125 15.4323 17.099 16.4583 15.8333 16.4583H4.16667C2.90101 16.4583 1.875 15.4323 1.875 14.1667V5.83334Z" fill="white"/>
<path fill-rule="evenodd" clip-rule="evenodd" d="M1.98003 5.48665C2.17151 5.19944 2.55955 5.12183 2.84675 5.3133L10.0001 10.0822L17.1534 5.3133C17.4406 5.12183 17.8286 5.19944 18.0201 5.48665C18.2116 5.77385 18.134 6.16189 17.8468 6.35337L10.3468 11.3534C10.1368 11.4933 9.86332 11.4933 9.65338 11.3534L2.15338 6.35337C1.86617 6.16189 1.78856 5.77385 1.98003 5.48665Z" fill="white"/>
</svg>
