<svg width="20" height="20" viewBox="0 0 20 20" fill="none" xmlns="http://www.w3.org/2000/svg">
<path fill-rule="evenodd" clip-rule="evenodd" d="M4.16667 4.79163C3.59137 4.79163 3.125 5.258 3.125 5.83329V14.1666C3.125 14.7419 3.59137 15.2083 4.16667 15.2083H15.8333C16.4086 15.2083 16.875 14.7419 16.875 14.1666V5.83329C16.875 5.258 16.4086 4.79163 15.8333 4.79163H4.16667ZM1.875 5.83329C1.875 4.56764 2.90101 3.54163 4.16667 3.54163H15.8333C17.099 3.54163 18.125 4.56764 18.125 5.83329V14.1666C18.125 15.4323 17.099 16.4583 15.8333 16.4583H4.16667C2.90101 16.4583 1.875 15.4323 1.875 14.1666V5.83329Z" fill="white"/>
<path fill-rule="evenodd" clip-rule="evenodd" d="M1.98003 5.48663C2.17151 5.19943 2.55955 5.12182 2.84675 5.31329L10.0001 10.0822L17.1534 5.31329C17.4406 5.12182 17.8286 5.19943 18.0201 5.48663C18.2116 5.77384 18.134 6.16188 17.8468 6.35335L10.3468 11.3533C10.1368 11.4933 9.86332 11.4933 9.65338 11.3533L2.15338 6.35335C1.86617 6.16188 1.78856 5.77384 1.98003 5.48663Z" fill="white"/>
</svg>
