<svg width="141" height="141" viewBox="0 0 141 141" fill="none" xmlns="http://www.w3.org/2000/svg">
<circle cx="70.5" cy="70.5" r="70.5" fill="white"/>
<path d="M50.0994 86.9931C51.2523 86.9931 52.2195 86.6025 53.0008 85.8211C53.7821 85.0398 54.1714 84.074 54.1687 82.9237C54.1687 81.7708 53.7781 80.8036 52.9968 80.0223C52.2154 79.241 51.2496 78.8517 50.0994 78.8544C48.9464 78.8544 47.9792 79.245 47.1979 80.0264C46.4166 80.8077 46.0273 81.7735 46.03 82.9237C46.03 84.0767 46.4206 85.0439 47.202 85.8252C47.9833 86.6065 48.9491 86.9958 50.0994 86.9931ZM50.0994 74.785C51.2523 74.785 52.2195 74.3943 53.0008 73.613C53.7821 72.8317 54.1714 71.8659 54.1687 70.7156V58.5075C54.1687 57.3545 53.7781 56.3873 52.9968 55.606C52.2154 54.8247 51.2496 54.4354 50.0994 54.4381C48.9464 54.4381 47.9792 54.8287 47.1979 55.6101C46.4166 56.3914 46.0273 57.3572 46.03 58.5075V70.7156C46.03 71.8686 46.4206 72.8358 47.202 73.6171C47.9833 74.3984 48.9491 74.7877 50.0994 74.785ZM66.3769 82.9237H90.7932C91.9462 82.9237 92.9133 82.5331 93.6946 81.7518C94.4759 80.9704 94.8653 80.0046 94.8625 78.8544C94.8625 77.7014 94.4719 76.7342 93.6906 75.9529C92.9092 75.1716 91.9434 74.7823 90.7932 74.785H66.3769C65.2239 74.785 64.2567 75.1756 63.4754 75.957C62.6941 76.7383 62.3048 77.7041 62.3075 78.8544C62.3075 80.0074 62.6982 80.9745 63.4795 81.7558C64.2608 82.5372 65.2266 82.9265 66.3769 82.9237ZM66.3769 66.6462H90.7932C91.9462 66.6462 92.9133 66.2556 93.6946 65.4742C94.4759 64.6929 94.8653 63.7271 94.8625 62.5768C94.8625 61.4239 94.4719 60.4567 93.6906 59.6754C92.9092 58.8941 91.9434 58.5048 90.7932 58.5075H66.3769C65.2239 58.5075 64.2567 58.8981 63.4754 59.6794C62.6941 60.4608 62.3048 61.4266 62.3075 62.5768C62.3075 63.7298 62.6982 64.697 63.4795 65.4783C64.2608 66.2596 65.2266 66.6489 66.3769 66.6462ZM37.8912 103.271C35.6531 103.271 33.7364 102.473 32.1412 100.878C30.546 99.2827 29.7497 97.3673 29.7524 95.1319V46.2993C29.7524 44.0612 30.55 42.1445 32.1452 40.5493C33.7404 38.9541 35.6558 38.1578 37.8912 38.1606H103.001C105.239 38.1606 107.156 38.9582 108.751 40.5534C110.347 42.1486 111.143 44.0639 111.14 46.2993V95.1319C111.14 97.3701 110.342 99.2867 108.747 100.882C107.152 102.477 105.237 103.273 103.001 103.271H37.8912Z" fill="#254000"/>
</svg>
