<svg width="141" height="141" viewBox="0 0 141 141" fill="none" xmlns="http://www.w3.org/2000/svg">
<circle cx="70.5" cy="70.5" r="70.5" fill="white"/>
<path d="M50.0989 86.9931C51.2519 86.9931 52.219 86.6025 53.0003 85.8211C53.7817 85.0398 54.171 84.074 54.1682 82.9237C54.1682 81.7708 53.7776 80.8036 52.9963 80.0223C52.2149 79.241 51.2491 78.8517 50.0989 78.8544C48.9459 78.8544 47.9787 79.245 47.1974 80.0264C46.4161 80.8077 46.0268 81.7735 46.0295 82.9237C46.0295 84.0767 46.4201 85.0439 47.2015 85.8252C47.9828 86.6065 48.9486 86.9958 50.0989 86.9931ZM50.0989 74.785C51.2519 74.785 52.219 74.3943 53.0003 73.613C53.7817 72.8317 54.171 71.8659 54.1682 70.7156V58.5075C54.1682 57.3545 53.7776 56.3873 52.9963 55.606C52.2149 54.8247 51.2491 54.4354 50.0989 54.4381C48.9459 54.4381 47.9787 54.8287 47.1974 55.6101C46.4161 56.3914 46.0268 57.3572 46.0295 58.5075V70.7156C46.0295 71.8686 46.4201 72.8358 47.2015 73.6171C47.9828 74.3984 48.9486 74.7877 50.0989 74.785ZM66.3764 82.9237H90.7927C91.9457 82.9237 92.9128 82.5331 93.6941 81.7518C94.4755 80.9704 94.8648 80.0046 94.8621 78.8544C94.8621 77.7014 94.4714 76.7342 93.6901 75.9529C92.9087 75.1716 91.943 74.7823 90.7927 74.785H66.3764C65.2234 74.785 64.2562 75.1756 63.4749 75.957C62.6936 76.7383 62.3043 77.7041 62.307 78.8544C62.307 80.0074 62.6977 80.9745 63.479 81.7558C64.2603 82.5372 65.2261 82.9265 66.3764 82.9237ZM66.3764 66.6462H90.7927C91.9457 66.6462 92.9128 66.2556 93.6941 65.4742C94.4755 64.6929 94.8648 63.7271 94.8621 62.5768C94.8621 61.4239 94.4714 60.4567 93.6901 59.6754C92.9087 58.8941 91.943 58.5048 90.7927 58.5075H66.3764C65.2234 58.5075 64.2562 58.8981 63.4749 59.6794C62.6936 60.4608 62.3043 61.4266 62.307 62.5768C62.307 63.7298 62.6977 64.697 63.479 65.4783C64.2603 66.2596 65.2261 66.6489 66.3764 66.6462ZM37.8907 103.271C35.6526 103.271 33.7359 102.473 32.1407 100.878C30.5455 99.2827 29.7492 97.3673 29.752 95.1319V46.2993C29.752 44.0612 30.5496 42.1445 32.1448 40.5493C33.74 38.9541 35.6553 38.1578 37.8907 38.1606H103.001C105.239 38.1606 107.156 38.9582 108.751 40.5534C110.346 42.1486 111.142 44.0639 111.14 46.2993V95.1319C111.14 97.3701 110.342 99.2867 108.747 100.882C107.152 102.477 105.236 103.273 103.001 103.271H37.8907Z" fill="#254000"/>
</svg>
