<svg width="141" height="141" viewBox="0 0 141 141" fill="none" xmlns="http://www.w3.org/2000/svg">
<circle cx="70.5" cy="70.5" r="70.5" fill="white"/>
<path d="M38.4667 69.1501C39.1014 69.6278 39.8733 69.886 40.6667 69.886C41.2351 69.8813 41.7949 69.7463 42.3033 69.4912C42.8117 69.2361 43.2553 68.8677 43.6 68.4142C44.9662 66.5864 46.7377 65.1028 48.7742 64.081C50.8108 63.0592 53.0564 62.5273 55.3333 62.5273C57.6103 62.5273 59.8559 63.0592 61.8925 64.081C63.929 65.1028 65.7005 66.5864 67.0667 68.4142H67.0972L67.3111 68.6595C67.3111 68.6902 67.3417 68.6902 67.3722 68.7208L67.5556 68.9048L67.6778 69.0275L67.8 69.1194C67.8081 69.1194 67.8159 69.1227 67.8216 69.1284C67.8273 69.1342 67.8306 69.142 67.8306 69.1501L67.9222 69.2114L68.1056 69.3341L68.1972 69.3954L68.4417 69.4874C68.4417 69.518 68.4722 69.518 68.5028 69.518L68.7778 69.6407H68.8083C69.0224 69.7343 69.2488 69.7963 69.4806 69.8246H70.4583L70.7333 69.7633H70.8556C71.1093 69.6986 71.3553 69.606 71.5889 69.4874L71.7111 69.426L71.925 69.3034L72.0778 69.2114L72.2 69.1194L72.2611 69.0581L72.3833 68.9661L72.5972 68.7822L72.6889 68.6902L72.9028 68.4142H72.9333C74.2995 66.5864 76.071 65.1028 78.1075 64.081C80.1441 63.0592 82.3897 62.5273 84.6667 62.5273C86.9436 62.5273 89.1892 63.0592 91.2258 64.081C93.2623 65.1028 95.0338 66.5864 96.4 68.4142C96.9835 69.1949 97.8521 69.711 98.8148 69.849C99.7775 69.987 100.755 69.7356 101.533 69.1501C102.311 68.5646 102.826 67.693 102.963 66.727C103.101 65.761 102.85 64.7797 102.267 63.999C100.223 61.2639 97.5774 59.0394 94.5361 57.4989C95.8673 55.6703 96.6679 53.5075 96.8493 51.2503C97.0307 48.9931 96.5858 46.7296 95.5639 44.7106C94.5419 42.6916 92.9829 40.9959 91.0595 39.8114C89.136 38.627 86.9234 38 84.6667 38C82.4099 38 80.1973 38.627 78.2739 39.8114C76.3504 40.9959 74.7914 42.6916 73.7694 44.7106C72.7475 46.7296 72.3026 48.9931 72.484 51.2503C72.6654 53.5075 73.466 55.6703 74.7972 57.4989C73.0598 58.3734 71.4465 59.4768 70 60.7796C68.5535 59.4768 66.9402 58.3734 65.2028 57.4989C66.5339 55.6703 67.3346 53.5075 67.516 51.2503C67.6974 48.9931 67.2525 46.7296 66.2306 44.7106C65.2086 42.6916 63.6496 40.9959 61.7261 39.8114C59.8027 38.627 57.5901 38 55.3333 38C53.0766 38 50.864 38.627 48.9405 39.8114C47.0171 40.9959 45.4581 42.6916 44.4361 44.7106C43.4142 46.7296 42.9693 48.9931 43.1507 51.2503C43.3321 53.5075 44.1327 55.6703 45.4639 57.4989C42.4226 59.0394 39.777 61.2639 37.7333 63.999C37.1499 64.7797 36.8993 65.761 37.0369 66.727C37.1744 67.693 37.6887 68.5646 38.4667 69.1501ZM79.7778 50.2628C79.7778 49.2926 80.0645 48.3441 80.6017 47.5373C81.1389 46.7306 81.9024 46.1018 82.7958 45.7305C83.6891 45.3592 84.6721 45.262 85.6204 45.4513C86.5688 45.6406 87.4399 46.1078 88.1236 46.7939C88.8073 47.48 89.273 48.3541 89.4616 49.3058C89.6502 50.2574 89.5534 51.2438 89.1834 52.1402C88.8134 53.0366 88.1868 53.8028 87.3828 54.3418C86.5788 54.8809 85.6336 55.1686 84.6667 55.1686C83.37 55.1686 82.1265 54.6518 81.2097 53.7317C80.2929 52.8117 79.7778 51.5639 79.7778 50.2628ZM50.4445 50.2628C50.4445 49.2926 50.7312 48.3441 51.2684 47.5373C51.8056 46.7306 52.5691 46.1018 53.4624 45.7305C54.3558 45.3592 55.3388 45.262 56.2871 45.4513C57.2355 45.6406 58.1066 46.1078 58.7903 46.7939C59.474 47.48 59.9396 48.3541 60.1283 49.3058C60.3169 50.2574 60.2201 51.2438 59.8501 52.1402C59.4801 53.0366 58.8534 53.8028 58.0495 54.3418C57.2455 54.8809 56.3003 55.1686 55.3333 55.1686C54.0367 55.1686 52.7932 54.6518 51.8764 53.7317C50.9595 52.8117 50.4445 51.5639 50.4445 50.2628ZM94.5361 90.6129C95.8673 88.7843 96.6679 86.6216 96.8493 84.3644C97.0307 82.1072 96.5858 79.8437 95.5639 77.8246C94.5419 75.8056 92.9829 74.1099 91.0595 72.9255C89.136 71.741 86.9234 71.114 84.6667 71.114C82.4099 71.114 80.1973 71.741 78.2739 72.9255C76.3504 74.1099 74.7914 75.8056 73.7694 77.8246C72.7475 79.8437 72.3026 82.1072 72.484 84.3644C72.6654 86.6216 73.466 88.7843 74.7972 90.6129C73.0598 91.4875 71.4465 92.5908 70 93.8936C68.5535 92.5908 66.9402 91.4875 65.2028 90.6129C66.5339 88.7843 67.3346 86.6216 67.516 84.3644C67.6974 82.1072 67.2525 79.8437 66.2306 77.8246C65.2086 75.8056 63.6496 74.1099 61.7261 72.9255C59.8027 71.741 57.5901 71.114 55.3333 71.114C53.0766 71.114 50.864 71.741 48.9405 72.9255C47.0171 74.1099 45.4581 75.8056 44.4361 77.8246C43.4142 79.8437 42.9693 82.1072 43.1507 84.3644C43.3321 86.6216 44.1327 88.7843 45.4639 90.6129C42.4226 92.1534 39.777 94.3779 37.7333 97.1131C37.3248 97.6597 37.076 98.3097 37.0148 98.9902C36.9537 99.6708 37.0826 100.355 37.3871 100.966C37.6916 101.577 38.1598 102.091 38.739 102.45C39.3182 102.81 39.9857 103 40.6667 103C41.2351 102.995 41.7949 102.86 42.3033 102.605C42.8117 102.35 43.2553 101.982 43.6 101.528C44.9662 99.7004 46.7377 98.2169 48.7742 97.1951C50.8108 96.1733 53.0564 95.6413 55.3333 95.6413C57.6103 95.6413 59.8559 96.1733 61.8925 97.1951C63.929 98.2169 65.7005 99.7004 67.0667 101.528H67.0972L67.3111 101.774C67.3111 101.79 67.3176 101.805 67.329 101.817C67.3405 101.828 67.356 101.835 67.3722 101.835L67.5556 102.019L67.6778 102.141L67.8 102.233H67.8306L67.9222 102.295L68.1056 102.417L68.1972 102.479L68.4417 102.571L68.5028 102.632L68.7778 102.724H68.8083C69.0224 102.818 69.2488 102.88 69.4806 102.908H70.4583L70.7333 102.847H70.8556L71.5889 102.571L71.7111 102.509L71.925 102.387L72.0778 102.295L72.2 102.203L72.2611 102.141L72.3833 102.049L72.5972 101.866L72.6889 101.774L72.9028 101.498H72.9333C74.2995 99.6698 76.071 98.1862 78.1075 97.1644C80.1441 96.1426 82.3897 95.6107 84.6667 95.6107C86.9436 95.6107 89.1892 96.1426 91.2258 97.1644C93.2623 98.1862 95.0338 99.6698 96.4 101.498C96.9835 102.278 97.8521 102.794 98.8148 102.932C99.7775 103.07 100.755 102.819 101.533 102.233C102.311 101.648 102.826 100.776 102.963 99.8103C103.101 98.8443 102.85 97.8631 102.267 97.0824C100.219 94.3584 97.5742 92.1446 94.5361 90.6129ZM50.4445 83.3769C50.4445 82.4066 50.7312 81.4581 51.2684 80.6514C51.8056 79.8446 52.5691 79.2158 53.4624 78.8445C54.3558 78.4732 55.3388 78.3761 56.2871 78.5653C57.2355 78.7546 58.1066 79.2219 58.7903 79.908C59.474 80.594 59.9396 81.4682 60.1283 82.4198C60.3169 83.3714 60.2201 84.3578 59.8501 85.2542C59.4801 86.1506 58.8534 86.9168 58.0495 87.4559C57.2455 87.9949 56.3003 88.2826 55.3333 88.2826C54.0367 88.2826 52.7932 87.7658 51.8764 86.8458C50.9595 85.9258 50.4445 84.678 50.4445 83.3769ZM79.7778 83.3769C79.7778 82.4066 80.0645 81.4581 80.6017 80.6514C81.1389 79.8446 81.9024 79.2158 82.7958 78.8445C83.6891 78.4732 84.6721 78.3761 85.6204 78.5653C86.5688 78.7546 87.4399 79.2219 88.1236 79.908C88.8073 80.594 89.273 81.4682 89.4616 82.4198C89.6502 83.3714 89.5534 84.3578 89.1834 85.2542C88.8134 86.1506 88.1868 86.9168 87.3828 87.4559C86.5788 87.9949 85.6336 88.2826 84.6667 88.2826C83.37 88.2826 82.1265 87.7658 81.2097 86.8458C80.2929 85.9258 79.7778 84.678 79.7778 83.3769Z" fill="#254000"/>
</svg>
