<svg width="20" height="21" viewBox="0 0 20 21" fill="none" xmlns="http://www.w3.org/2000/svg">
<path d="M12.9167 12.25H12.2583L12.025 12.0138C12.8699 10.9848 13.3343 9.67111 13.3333 8.3125C13.3333 7.18762 13.0157 6.088 12.4205 5.1527C11.8253 4.21739 10.9793 3.48841 9.98954 3.05794C8.99977 2.62746 7.91066 2.51483 6.85993 2.73429C5.8092 2.95374 4.84404 3.49542 4.08651 4.29083C3.32897 5.08624 2.81309 6.09966 2.60408 7.20293C2.39508 8.30619 2.50235 9.44976 2.91232 10.489C3.3223 11.5283 4.01656 12.4165 4.90733 13.0415C5.7981 13.6664 6.84535 14 7.91667 14C9.25834 14 10.4917 13.4838 11.4417 12.6263L11.6667 12.8713V13.5625L15.8333 17.9288L17.075 16.625L12.9167 12.25ZM7.91667 12.25C5.84167 12.25 4.16667 10.4913 4.16667 8.3125C4.16667 6.13375 5.84167 4.375 7.91667 4.375C9.99167 4.375 11.6667 6.13375 11.6667 8.3125C11.6667 10.4913 9.99167 12.25 7.91667 12.25Z" fill="white"/>
</svg>
