<svg width="14" height="14" viewBox="0 0 14 14" fill="none" xmlns="http://www.w3.org/2000/svg">
<path d="M13.4512 8.7794L12.4277 7.90439C12.4762 7.60752 12.5012 7.30439 12.5012 7.00127C12.5012 6.69814 12.4762 6.39502 12.4277 6.09814L13.4512 5.22314C13.5284 5.15706 13.5836 5.06904 13.6096 4.9708C13.6355 4.87255 13.631 4.76873 13.5965 4.67314L13.5824 4.63252C13.3007 3.84506 12.8788 3.11507 12.3371 2.47783L12.309 2.44502C12.2433 2.36776 12.1557 2.31222 12.0578 2.28572C11.9599 2.25922 11.8563 2.26301 11.7605 2.29658L10.4902 2.74814C10.0215 2.36377 9.49805 2.06064 8.93242 1.84814L8.68711 0.520019C8.6686 0.420085 8.62013 0.328148 8.54812 0.256422C8.47612 0.184696 8.38399 0.136577 8.28399 0.118457L8.2418 0.110645C7.42774 -0.0362305 6.57149 -0.0362305 5.75742 0.110645L5.71524 0.118457C5.61523 0.136577 5.52311 0.184696 5.4511 0.256422C5.3791 0.328148 5.33062 0.420085 5.31211 0.520019L5.06524 1.85439C4.50413 2.06694 3.98159 2.3699 3.51836 2.75127L2.23867 2.29658C2.143 2.26274 2.03929 2.25882 1.94132 2.28533C1.84336 2.31185 1.75579 2.36754 1.69024 2.44502L1.66211 2.47783C1.12109 3.11553 0.699262 3.84539 0.4168 4.63252L0.402738 4.67314C0.332425 4.86846 0.390238 5.08721 0.54805 5.22314L1.58399 6.10752C1.53555 6.40127 1.51211 6.70127 1.51211 6.99971C1.51211 7.29971 1.53555 7.59971 1.58399 7.89189L0.54805 8.77627C0.470856 8.84235 0.415607 8.93037 0.38965 9.02862C0.363693 9.12686 0.368258 9.23068 0.402738 9.32627L0.4168 9.36689C0.699613 10.1544 1.11836 10.881 1.66211 11.5216L1.69024 11.5544C1.75595 11.6317 1.84352 11.6872 1.94143 11.7137C2.03933 11.7402 2.14297 11.7364 2.23867 11.7028L3.51836 11.2481C3.98399 11.631 4.5043 11.9341 5.06524 12.145L5.31211 13.4794C5.33062 13.5793 5.3791 13.6713 5.4511 13.743C5.52311 13.8147 5.61523 13.8628 5.71524 13.881L5.75742 13.8888C6.57897 14.0364 7.42026 14.0364 8.2418 13.8888L8.28399 13.881C8.38399 13.8628 8.47612 13.8147 8.54812 13.743C8.62013 13.6713 8.6686 13.5793 8.68711 13.4794L8.93242 12.1513C9.49782 11.9393 10.0242 11.6352 10.4902 11.2513L11.7605 11.7028C11.8562 11.7367 11.9599 11.7406 12.0579 11.7141C12.1559 11.6876 12.2434 11.6319 12.309 11.5544L12.3371 11.5216C12.8809 10.8794 13.2996 10.1544 13.5824 9.36689L13.5965 9.32627C13.6668 9.13408 13.609 8.91533 13.4512 8.7794V8.7794ZM11.3184 6.28252C11.3574 6.51846 11.3777 6.76064 11.3777 7.00283C11.3777 7.24502 11.3574 7.48721 11.3184 7.72314L11.2152 8.34971L12.3824 9.34814C12.2055 9.75578 11.9821 10.1417 11.7168 10.4981L10.2668 9.98408L9.77617 10.3872C9.40274 10.6935 8.98711 10.9341 8.53711 11.1028L7.9418 11.3263L7.66211 12.8419C7.22082 12.8919 6.77528 12.8919 6.33399 12.8419L6.0543 11.3231L5.46368 11.0966C5.01836 10.9278 4.6043 10.6872 4.23399 10.3825L3.74336 9.97783L2.28399 10.4966C2.01836 10.1388 1.79649 9.75283 1.61836 9.34658L2.79805 8.33877L2.69649 7.71377C2.65899 7.48096 2.63868 7.24033 2.63868 7.00283C2.63868 6.76377 2.65743 6.52471 2.69649 6.29189L2.79805 5.66689L1.61836 4.65908C1.79493 4.25127 2.01836 3.86689 2.28399 3.50908L3.74336 4.02783L4.23399 3.62314C4.6043 3.31846 5.01836 3.07783 5.46368 2.90908L6.05586 2.68564L6.33555 1.16689C6.77461 1.11689 7.22305 1.11689 7.66368 1.16689L7.94336 2.68252L8.53868 2.90596C8.98711 3.07471 9.4043 3.31533 9.77774 3.62158L10.2684 4.02471L11.7184 3.51064C11.984 3.86846 12.2059 4.25439 12.384 4.66064L11.2168 5.65908L11.3184 6.28252ZM7.00117 4.09658C5.48242 4.09658 4.25118 5.32783 4.25118 6.84658C4.25118 8.36533 5.48242 9.59658 7.00117 9.59658C8.51992 9.59658 9.75117 8.36533 9.75117 6.84658C9.75117 5.32783 8.51992 4.09658 7.00117 4.09658ZM8.23868 8.08408C8.07637 8.24686 7.88347 8.37594 7.6711 8.46389C7.45872 8.55185 7.23105 8.59694 7.00117 8.59658C6.53399 8.59658 6.09492 8.41377 5.76367 8.08408C5.6009 7.92177 5.47182 7.72888 5.38387 7.5165C5.29591 7.30412 5.25082 7.07645 5.25117 6.84658C5.25117 6.37939 5.43399 5.94033 5.76367 5.60908C6.09492 5.27783 6.53399 5.09658 7.00117 5.09658C7.46836 5.09658 7.90743 5.27783 8.23868 5.60908C8.40145 5.77139 8.53053 5.96428 8.61848 6.17666C8.70644 6.38904 8.75153 6.61671 8.75117 6.84658C8.75117 7.31377 8.56836 7.75283 8.23868 8.08408Z" fill="black" fill-opacity="0.85"/>
</svg>
