<svg width="14" height="14" viewBox="0 0 14 14" fill="none" xmlns="http://www.w3.org/2000/svg">
<path d="M12.4151 10.9325C12.1203 10.2343 11.6926 9.60013 11.1557 9.06528C10.6204 8.52889 9.98637 8.10123 9.28852 7.80591C9.28227 7.80278 9.27602 7.80122 9.26977 7.7981C10.2432 7.09497 10.876 5.94966 10.876 4.65747C10.876 2.51685 9.14164 0.782471 7.00102 0.782471C4.86039 0.782471 3.12602 2.51685 3.12602 4.65747C3.12602 5.94966 3.75883 7.09497 4.73227 7.79966C4.72602 7.80278 4.71977 7.80435 4.71352 7.80747C4.01352 8.10278 3.38539 8.52622 2.84633 9.06685C2.30994 9.60211 1.88227 10.2362 1.58695 10.934C1.29683 11.6172 1.14036 12.3497 1.12602 13.0918C1.1256 13.1085 1.12852 13.1251 1.13462 13.1406C1.14071 13.1562 1.14985 13.1703 1.1615 13.1823C1.17315 13.1942 1.18707 13.2037 1.20245 13.2102C1.21782 13.2166 1.23433 13.22 1.25102 13.22H2.18852C2.25727 13.22 2.31195 13.1653 2.31352 13.0981C2.34477 11.8918 2.82914 10.7622 3.68539 9.90591C4.57133 9.01997 5.74789 8.53247 7.00102 8.53247C8.25414 8.53247 9.4307 9.01997 10.3166 9.90591C11.1729 10.7622 11.6573 11.8918 11.6885 13.0981C11.6901 13.1668 11.7448 13.22 11.8135 13.22H12.751C12.7677 13.22 12.7842 13.2166 12.7996 13.2102C12.815 13.2037 12.8289 13.1942 12.8405 13.1823C12.8522 13.1703 12.8613 13.1562 12.8674 13.1406C12.8735 13.1251 12.8764 13.1085 12.876 13.0918C12.8604 12.345 12.7057 11.6184 12.4151 10.9325V10.9325ZM7.00102 7.34497C6.28383 7.34497 5.60883 7.06528 5.10102 6.55747C4.5932 6.04966 4.31352 5.37466 4.31352 4.65747C4.31352 3.94028 4.5932 3.26528 5.10102 2.75747C5.60883 2.24966 6.28383 1.96997 7.00102 1.96997C7.7182 1.96997 8.3932 2.24966 8.90102 2.75747C9.40883 3.26528 9.68852 3.94028 9.68852 4.65747C9.68852 5.37466 9.40883 6.04966 8.90102 6.55747C8.3932 7.06528 7.7182 7.34497 7.00102 7.34497Z" fill="black" fill-opacity="0.85"/>
</svg>
