<svg width="20" height="20" viewBox="0 0 20 20" fill="none" xmlns="http://www.w3.org/2000/svg">
<path fill-rule="evenodd" clip-rule="evenodd" d="M10 7.29166C8.96447 7.29166 8.125 8.13112 8.125 9.16666C8.125 10.2022 8.96447 11.0417 10 11.0417C11.0355 11.0417 11.875 10.2022 11.875 9.16666C11.875 8.13112 11.0355 7.29166 10 7.29166ZM6.875 9.16666C6.875 7.44077 8.27411 6.04166 10 6.04166C11.7259 6.04166 13.125 7.44077 13.125 9.16666C13.125 10.8925 11.7259 12.2917 10 12.2917C8.27411 12.2917 6.875 10.8925 6.875 9.16666Z" fill="white"/>
<path fill-rule="evenodd" clip-rule="evenodd" d="M9.99968 3.1252C8.80476 3.1252 7.63668 3.47953 6.64314 4.14338C5.6496 4.80723 4.87522 5.7508 4.41794 6.85475C3.96065 7.9587 3.84098 9.17346 4.07408 10.3454C4.30717 11.5174 4.88252 12.5938 5.7274 13.4388C5.72738 13.4388 5.72742 13.4388 5.7274 13.4388L9.2639 16.9745C9.45922 17.1696 9.72401 17.2792 10.0001 17.2792C10.2762 17.2792 10.541 17.1696 10.7363 16.9745L14.2719 13.4389C15.1168 12.5939 15.6922 11.5174 15.9253 10.3454C16.1584 9.17346 16.0387 7.9587 15.5814 6.85475C15.1241 5.7508 14.3498 4.80723 13.3562 4.14338C12.3627 3.47953 11.1946 3.1252 9.99968 3.1252ZM15.1558 14.3227C16.1755 13.3029 16.8699 12.0037 17.1513 10.5893C17.4326 9.17483 17.2882 7.70873 16.7363 6.37638C16.1844 5.04402 15.2498 3.90524 14.0507 3.10404C12.8516 2.30284 11.4418 1.8752 9.99968 1.8752C8.55754 1.8752 7.14778 2.30284 5.94868 3.10404C4.74958 3.90524 3.81499 5.04402 3.26309 6.37638C2.71119 7.70873 2.56677 9.17483 2.84809 10.5893C3.12941 12.0037 3.82384 13.3029 4.84356 14.3227L8.38029 17.8586C8.80999 18.2879 9.39271 18.5292 10.0001 18.5292C10.6075 18.5292 11.19 18.2881 11.6197 17.8588L15.1558 14.3227Z" fill="white"/>
</svg>
