<svg width="20" height="20" viewBox="0 0 20 20" fill="none" xmlns="http://www.w3.org/2000/svg">
<path fill-rule="evenodd" clip-rule="evenodd" d="M10 7.29166C8.96447 7.29166 8.125 8.13112 8.125 9.16666C8.125 10.2022 8.96447 11.0417 10 11.0417C11.0355 11.0417 11.875 10.2022 11.875 9.16666C11.875 8.13112 11.0355 7.29166 10 7.29166ZM6.875 9.16666C6.875 7.44077 8.27411 6.04166 10 6.04166C11.7259 6.04166 13.125 7.44077 13.125 9.16666C13.125 10.8925 11.7259 12.2917 10 12.2917C8.27411 12.2917 6.875 10.8925 6.875 9.16666Z" fill="white"/>
<path fill-rule="evenodd" clip-rule="evenodd" d="M10.0002 3.1252C8.80525 3.1252 7.63717 3.47953 6.64363 4.14338C5.65009 4.80723 4.87571 5.7508 4.41842 6.85475C3.96114 7.9587 3.84147 9.17346 4.07457 10.3454C4.30765 11.5174 4.88301 12.5938 5.72789 13.4388C5.72787 13.4388 5.72791 13.4388 5.72789 13.4388L9.26439 16.9745C9.45971 17.1696 9.7245 17.2792 10.0006 17.2792C10.2767 17.2792 10.5415 17.1696 10.7368 16.9745L14.2724 13.4389C15.1173 12.5939 15.6927 11.5174 15.9258 10.3454C16.1589 9.17346 16.0392 7.9587 15.5819 6.85475C15.1246 5.7508 14.3502 4.80723 13.3567 4.14338C12.3632 3.47953 11.1951 3.1252 10.0002 3.1252ZM15.1563 14.3227C16.176 13.3029 16.8704 12.0037 17.1518 10.5893C17.4331 9.17483 17.2887 7.70873 16.7368 6.37638C16.1849 5.04402 15.2503 3.90524 14.0512 3.10404C12.8521 2.30284 11.4423 1.8752 10.0002 1.8752C8.55803 1.8752 7.14827 2.30284 5.94917 3.10404C4.75007 3.90524 3.81548 5.04402 3.26358 6.37638C2.71168 7.70873 2.56726 9.17483 2.84858 10.5893C3.1299 12.0037 3.82433 13.3029 4.84405 14.3227L8.38078 17.8586C8.81048 18.2879 9.3932 18.5292 10.0006 18.5292C10.608 18.5292 11.1905 18.2881 11.6202 17.8588L15.1563 14.3227Z" fill="white"/>
</svg>
