<svg width="24" height="24" viewBox="0 0 24 24" fill="none" xmlns="http://www.w3.org/2000/svg">
<path d="M12 5.50049C12.9283 5.50049 13.8185 5.86924 14.4749 6.52561C15.1313 7.18199 15.5 8.07223 15.5 9.00049C15.5 9.92875 15.1313 10.819 14.4749 11.4754C13.8185 12.1317 12.9283 12.5005 12 12.5005C11.0717 12.5005 10.1815 12.1317 9.52513 11.4754C8.86875 10.819 8.5 9.92875 8.5 9.00049C8.5 8.07223 8.86875 7.18199 9.52513 6.52561C10.1815 5.86924 11.0717 5.50049 12 5.50049ZM5 8.00049C5.56 8.00049 6.08 8.15049 6.53 8.42049C6.38 9.85049 6.8 11.2705 7.66 12.3805C7.16 13.3405 6.16 14.0005 5 14.0005C4.20435 14.0005 3.44129 13.6844 2.87868 13.1218C2.31607 12.5592 2 11.7961 2 11.0005C2 10.2048 2.31607 9.44178 2.87868 8.87917C3.44129 8.31656 4.20435 8.00049 5 8.00049ZM19 8.00049C19.7956 8.00049 20.5587 8.31656 21.1213 8.87917C21.6839 9.44178 22 10.2048 22 11.0005C22 11.7961 21.6839 12.5592 21.1213 13.1218C20.5587 13.6844 19.7956 14.0005 19 14.0005C17.84 14.0005 16.84 13.3405 16.34 12.3805C17.2119 11.2549 17.6166 9.83669 17.47 8.42049C17.92 8.15049 18.44 8.00049 19 8.00049ZM5.5 18.2505C5.5 16.1805 8.41 14.5005 12 14.5005C15.59 14.5005 18.5 16.1805 18.5 18.2505V20.0005H5.5V18.2505ZM0 20.0005V18.5005C0 17.1105 1.89 15.9405 4.45 15.6005C3.86 16.2805 3.5 17.2205 3.5 18.2505V20.0005H0ZM24 20.0005H20.5V18.2505C20.5 17.2205 20.14 16.2805 19.55 15.6005C22.11 15.9405 24 17.1105 24 18.5005V20.0005Z" fill="#737373"/>
</svg>
