<svg width="24" height="24" viewBox="0 0 24 24" fill="none" xmlns="http://www.w3.org/2000/svg">
<path d="M12 5.50024C12.9283 5.50024 13.8185 5.86899 14.4749 6.52537C15.1313 7.18175 15.5 8.07199 15.5 9.00024C15.5 9.9285 15.1313 10.8187 14.4749 11.4751C13.8185 12.1315 12.9283 12.5002 12 12.5002C11.0717 12.5002 10.1815 12.1315 9.52513 11.4751C8.86875 10.8187 8.5 9.9285 8.5 9.00024C8.5 8.07199 8.86875 7.18175 9.52513 6.52537C10.1815 5.86899 11.0717 5.50024 12 5.50024ZM5 8.00024C5.56 8.00024 6.08 8.15024 6.53 8.42024C6.38 9.85024 6.8 11.2702 7.66 12.3802C7.16 13.3402 6.16 14.0002 5 14.0002C4.20435 14.0002 3.44129 13.6842 2.87868 13.1216C2.31607 12.559 2 11.7959 2 11.0002C2 10.2046 2.31607 9.44153 2.87868 8.87892C3.44129 8.31631 4.20435 8.00024 5 8.00024ZM19 8.00024C19.7956 8.00024 20.5587 8.31631 21.1213 8.87892C21.6839 9.44153 22 10.2046 22 11.0002C22 11.7959 21.6839 12.559 21.1213 13.1216C20.5587 13.6842 19.7956 14.0002 19 14.0002C17.84 14.0002 16.84 13.3402 16.34 12.3802C17.2119 11.2547 17.6166 9.83644 17.47 8.42024C17.92 8.15024 18.44 8.00024 19 8.00024ZM5.5 18.2502C5.5 16.1802 8.41 14.5002 12 14.5002C15.59 14.5002 18.5 16.1802 18.5 18.2502V20.0002H5.5V18.2502ZM0 20.0002V18.5002C0 17.1102 1.89 15.9402 4.45 15.6002C3.86 16.2802 3.5 17.2202 3.5 18.2502V20.0002H0ZM24 20.0002H20.5V18.2502C20.5 17.2202 20.14 16.2802 19.55 15.6002C22.11 15.9402 24 17.1102 24 18.5002V20.0002Z" fill="#737373"/>
</svg>
