<svg width="24" height="25" viewBox="0 0 24 25" fill="none" xmlns="http://www.w3.org/2000/svg">
<path d="M12 5.71533C12.9283 5.71533 13.8185 6.08408 14.4749 6.74046C15.1313 7.39684 15.5 8.28707 15.5 9.21533C15.5 10.1436 15.1313 11.0338 14.4749 11.6902C13.8185 12.3466 12.9283 12.7153 12 12.7153C11.0717 12.7153 10.1815 12.3466 9.52513 11.6902C8.86875 11.0338 8.5 10.1436 8.5 9.21533C8.5 8.28707 8.86875 7.39684 9.52513 6.74046C10.1815 6.08408 11.0717 5.71533 12 5.71533ZM5 8.21533C5.56 8.21533 6.08 8.36533 6.53 8.63533C6.38 10.0653 6.8 11.4853 7.66 12.5953C7.16 13.5553 6.16 14.2153 5 14.2153C4.20435 14.2153 3.44129 13.8993 2.87868 13.3367C2.31607 12.774 2 12.011 2 11.2153C2 10.4197 2.31607 9.65662 2.87868 9.09401C3.44129 8.5314 4.20435 8.21533 5 8.21533ZM19 8.21533C19.7956 8.21533 20.5587 8.5314 21.1213 9.09401C21.6839 9.65662 22 10.4197 22 11.2153C22 12.011 21.6839 12.774 21.1213 13.3367C20.5587 13.8993 19.7956 14.2153 19 14.2153C17.84 14.2153 16.84 13.5553 16.34 12.5953C17.2119 11.4698 17.6166 10.0515 17.47 8.63533C17.92 8.36533 18.44 8.21533 19 8.21533ZM5.5 18.4653C5.5 16.3953 8.41 14.7153 12 14.7153C15.59 14.7153 18.5 16.3953 18.5 18.4653V20.2153H5.5V18.4653ZM0 20.2153V18.7153C0 17.3253 1.89 16.1553 4.45 15.8153C3.86 16.4953 3.5 17.4353 3.5 18.4653V20.2153H0ZM24 20.2153H20.5V18.4653C20.5 17.4353 20.14 16.4953 19.55 15.8153C22.11 16.1553 24 17.3253 24 18.7153V20.2153Z" fill="#737373"/>
</svg>
