<svg width="20" height="20" viewBox="0 0 20 20" fill="none" xmlns="http://www.w3.org/2000/svg">
<path fill-rule="evenodd" clip-rule="evenodd" d="M4.16667 3.95833C3.8904 3.95833 3.62545 4.06808 3.4301 4.26343C3.23875 4.45477 3.12954 4.71289 3.12514 4.98301C3.31806 8.07348 4.63275 10.9875 6.82263 13.1774C9.01252 15.3672 11.9265 16.6819 15.017 16.8749C15.2871 16.8705 15.5452 16.7612 15.7366 16.5699C15.9319 16.3745 16.0417 16.1096 16.0417 15.8333V12.9231L12.7621 11.6113L11.7859 13.2382C11.6186 13.5171 11.2653 13.6211 10.9736 13.4772C9.04056 12.5239 7.47611 10.9594 6.5228 9.02644C6.37892 8.73472 6.48286 8.38141 6.76177 8.21406L8.38869 7.23791L7.07685 3.95833H4.16667ZM2.54621 3.37954C2.97598 2.94977 3.55888 2.70833 4.16667 2.70833H7.5C7.75557 2.70833 7.98538 2.86392 8.0803 3.10121L9.74696 7.26788C9.86089 7.5527 9.75127 7.8781 9.48823 8.03593L7.91508 8.97982C8.66174 10.2677 9.73232 11.3383 11.0202 12.0849L11.9641 10.5118C12.1219 10.2487 12.4473 10.1391 12.7321 10.253L16.8988 11.9197C17.1361 12.0146 17.2917 12.2444 17.2917 12.5V15.8333C17.2917 16.4411 17.0502 17.024 16.6205 17.4538C16.1907 17.8836 15.6078 18.125 15 18.125C14.9874 18.125 14.9747 18.1246 14.9621 18.1238C11.5591 17.917 8.34946 16.472 5.93875 14.0612C3.52804 11.6505 2.08295 8.44089 1.87615 5.03791C1.87538 5.02528 1.875 5.01264 1.875 4.99999C1.875 4.39221 2.11644 3.80931 2.54621 3.37954Z" fill="white"/>
</svg>
