<svg width="16" height="15" viewBox="0 0 16 15" fill="none" xmlns="http://www.w3.org/2000/svg">
<path d="M14.525 14.25L9.0125 9.2625C8.575 9.57917 8.07187 9.82986 7.50312 10.0146C6.93437 10.1993 6.32917 10.2917 5.6875 10.2917C4.09792 10.2917 2.75275 9.79344 1.652 8.797C0.55125 7.80056 0.000583333 6.5835 0 5.14583C0 3.70764 0.550667 2.49058 1.652 1.49467C2.75333 0.49875 4.0985 0.000527778 5.6875 0C7.27708 0 8.62225 0.498222 9.723 1.49467C10.8238 2.49111 11.3744 3.70817 11.375 5.14583C11.375 5.72639 11.2729 6.27396 11.0687 6.78854C10.8646 7.30312 10.5875 7.75833 10.2375 8.15417L15.75 13.1417L14.525 14.25ZM5.6875 8.70833C6.78125 8.70833 7.71108 8.36185 8.477 7.66888C9.24292 6.9759 9.62558 6.13489 9.625 5.14583C9.625 4.15625 9.24204 3.31497 8.47613 2.622C7.71021 1.92903 6.78067 1.58281 5.6875 1.58333C4.59375 1.58333 3.66392 1.92982 2.898 2.62279C2.13208 3.31576 1.74942 4.15678 1.75 5.14583C1.75 6.13542 2.13296 6.97669 2.89888 7.66967C3.66479 8.36264 4.59433 8.70886 5.6875 8.70833Z" fill="white"/>
</svg>
