<svg width="27" height="22" viewBox="0 0 27 22" fill="none" xmlns="http://www.w3.org/2000/svg">
<path d="M18.75 13.2917H17.565L17.145 12.9654C18.6658 11.5444 19.5017 9.73034 19.5 7.85417C19.5 6.30076 18.9282 4.78224 17.8568 3.49063C16.7855 2.19902 15.2627 1.19233 13.4812 0.597866C11.6996 0.00340313 9.73919 -0.152136 7.84787 0.150919C5.95656 0.453974 4.21927 1.20201 2.85571 2.30044C1.49215 3.39886 0.563554 4.79834 0.187348 6.3219C-0.188858 7.84546 0.00422448 9.42467 0.742179 10.8598C1.48013 12.295 2.72982 13.5216 4.33319 14.3847C5.93657 15.2477 7.82164 15.7083 9.75 15.7083C12.165 15.7083 14.385 14.9954 16.095 13.8113L16.5 14.1496V15.1042L24 21.1338L26.235 19.3333L18.75 13.2917ZM9.75 13.2917C6.015 13.2917 3 10.8629 3 7.85417C3 4.84542 6.015 2.41667 9.75 2.41667C13.485 2.41667 16.5 4.84542 16.5 7.85417C16.5 10.8629 13.485 13.2917 9.75 13.2917Z" fill="black"/>
</svg>
