<svg width="59" height="65" viewBox="0 0 59 65" fill="none" xmlns="http://www.w3.org/2000/svg">
<path d="M49.1667 65C46.4352 65 44.1134 64.0521 42.2014 62.1562C40.2894 60.2604 39.3333 57.9583 39.3333 55.25C39.3333 54.8708 39.3606 54.4776 39.4153 54.0702C39.4699 53.6651 39.5519 53.3 39.6611 52.975L16.5528 39.65C15.6241 40.4625 14.5861 41.0984 13.4389 41.5577C12.2917 42.0192 11.0898 42.25 9.83333 42.25C7.10185 42.25 4.78009 41.3021 2.86806 39.4062C0.956019 37.5104 0 35.2083 0 32.5C0 29.7917 0.956019 27.4896 2.86806 25.5938C4.78009 23.6979 7.10185 22.75 9.83333 22.75C11.0898 22.75 12.2917 22.9797 13.4389 23.439C14.5861 23.9005 15.6241 24.5375 16.5528 25.35L39.6611 12.025C39.5519 11.7 39.4699 11.3349 39.4153 10.9297C39.3606 10.5224 39.3333 10.1292 39.3333 9.75C39.3333 7.04167 40.2894 4.73958 42.2014 2.84375C44.1134 0.947917 46.4352 0 49.1667 0C51.8981 0 54.2199 0.947917 56.1319 2.84375C58.044 4.73958 59 7.04167 59 9.75C59 12.4583 58.044 14.7604 56.1319 16.6562C54.2199 18.5521 51.8981 19.5 49.1667 19.5C47.9102 19.5 46.7083 19.2692 45.5611 18.8078C44.4139 18.3484 43.3759 17.7125 42.4472 16.9L19.3389 30.225C19.4481 30.55 19.5301 30.9151 19.5847 31.3202C19.6394 31.7276 19.6667 32.1208 19.6667 32.5C19.6667 32.8792 19.6394 33.2713 19.5847 33.6765C19.5301 34.0838 19.4481 34.45 19.3389 34.775L42.4472 48.1C43.3759 47.2875 44.4139 46.6505 45.5611 46.189C46.7083 45.7297 47.9102 45.5 49.1667 45.5C51.8981 45.5 54.2199 46.4479 56.1319 48.3437C58.044 50.2396 59 52.5417 59 55.25C59 57.9583 58.044 60.2604 56.1319 62.1562C54.2199 64.0521 51.8981 65 49.1667 65Z" fill="#254000"/>
</svg>
