<svg width="15" height="14" viewBox="0 0 15 14" fill="none" xmlns="http://www.w3.org/2000/svg">
<g clip-path="url(#clip0_55_21908)">
<path d="M13.7125 12.3539L9.65469 8.29607C10.2844 7.48201 10.625 6.48669 10.625 5.43982C10.625 4.18669 10.1359 3.01169 9.25156 2.12576C8.36719 1.23982 7.18906 0.752319 5.9375 0.752319C4.68594 0.752319 3.50781 1.24138 2.62344 2.12576C1.7375 3.01013 1.25 4.18669 1.25 5.43982C1.25 6.69138 1.73906 7.86951 2.62344 8.75388C3.50781 9.63982 4.68438 10.1273 5.9375 10.1273C6.98438 10.1273 7.97813 9.78669 8.79219 9.15857L12.85 13.2148C12.8619 13.2267 12.876 13.2362 12.8916 13.2426C12.9071 13.2491 12.9238 13.2524 12.9406 13.2524C12.9575 13.2524 12.9741 13.2491 12.9897 13.2426C13.0052 13.2362 13.0194 13.2267 13.0312 13.2148L13.7125 12.5351C13.7244 12.5232 13.7338 12.5091 13.7403 12.4936C13.7467 12.478 13.7501 12.4613 13.7501 12.4445C13.7501 12.4277 13.7467 12.411 13.7403 12.3955C13.7338 12.3799 13.7244 12.3658 13.7125 12.3539V12.3539ZM8.4125 7.91482C7.75 8.57576 6.87187 8.93982 5.9375 8.93982C5.00313 8.93982 4.125 8.57576 3.4625 7.91482C2.80156 7.25232 2.4375 6.37419 2.4375 5.43982C2.4375 4.50544 2.80156 3.62576 3.4625 2.96482C4.125 2.30388 5.00313 1.93982 5.9375 1.93982C6.87187 1.93982 7.75156 2.30232 8.4125 2.96482C9.07344 3.62732 9.4375 4.50544 9.4375 5.43982C9.4375 6.37419 9.07344 7.25388 8.4125 7.91482Z" fill="white"/>
</g>
<defs>
<clipPath id="clip0_55_21908">
<rect width="14" height="14" fill="white" transform="translate(0.5 0.000244141)"/>
</clipPath>
</defs>
</svg>
