<svg width="15" height="15" viewBox="0 0 15 15" fill="none" xmlns="http://www.w3.org/2000/svg">
<path d="M13.7125 12.8535L9.65469 8.7957C10.2844 7.98164 10.625 6.98633 10.625 5.93945C10.625 4.68633 10.1359 3.51133 9.25156 2.62539C8.36719 1.73945 7.18906 1.25195 5.9375 1.25195C4.68594 1.25195 3.50781 1.74102 2.62344 2.62539C1.7375 3.50977 1.25 4.68633 1.25 5.93945C1.25 7.19102 1.73906 8.36914 2.62344 9.25352C3.50781 10.1395 4.68438 10.627 5.9375 10.627C6.98438 10.627 7.97813 10.2863 8.79219 9.6582L12.85 13.7145C12.8619 13.7264 12.876 13.7358 12.8916 13.7422C12.9071 13.7487 12.9238 13.752 12.9406 13.752C12.9575 13.752 12.9741 13.7487 12.9897 13.7422C13.0052 13.7358 13.0194 13.7264 13.0312 13.7145L13.7125 13.0348C13.7244 13.0229 13.7338 13.0087 13.7403 12.9932C13.7467 12.9776 13.7501 12.961 13.7501 12.9441C13.7501 12.9273 13.7467 12.9106 13.7403 12.8951C13.7338 12.8795 13.7244 12.8654 13.7125 12.8535V12.8535ZM8.4125 8.41445C7.75 9.07539 6.87187 9.43945 5.9375 9.43945C5.00313 9.43945 4.125 9.07539 3.4625 8.41445C2.80156 7.75195 2.4375 6.87383 2.4375 5.93945C2.4375 5.00508 2.80156 4.12539 3.4625 3.46445C4.125 2.80352 5.00313 2.43945 5.9375 2.43945C6.87187 2.43945 7.75156 2.80195 8.4125 3.46445C9.07344 4.12695 9.4375 5.00508 9.4375 5.93945C9.4375 6.87383 9.07344 7.75352 8.4125 8.41445Z" fill="white"/>
</svg>
