<svg width="14" height="14" viewBox="0 0 14 14" fill="none" xmlns="http://www.w3.org/2000/svg">
<g clip-path="url(#clip0_55_21852)">
<path d="M13.2125 12.3536L9.15469 8.29583C9.78438 7.48176 10.125 6.48645 10.125 5.43958C10.125 4.18645 9.63594 3.01145 8.75156 2.12551C7.86719 1.23958 6.68906 0.752075 5.4375 0.752075C4.18594 0.752075 3.00781 1.24114 2.12344 2.12551C1.2375 3.00989 0.75 4.18645 0.75 5.43958C0.75 6.69114 1.23906 7.86926 2.12344 8.75364C3.00781 9.63957 4.18438 10.1271 5.4375 10.1271C6.48438 10.1271 7.47813 9.78645 8.29219 9.15833L12.35 13.2146C12.3619 13.2265 12.376 13.2359 12.3916 13.2424C12.4071 13.2488 12.4238 13.2521 12.4406 13.2521C12.4575 13.2521 12.4741 13.2488 12.4897 13.2424C12.5052 13.2359 12.5194 13.2265 12.5312 13.2146L13.2125 12.5349C13.2244 12.523 13.2338 12.5089 13.2403 12.4933C13.2467 12.4778 13.2501 12.4611 13.2501 12.4443C13.2501 12.4274 13.2467 12.4108 13.2403 12.3952C13.2338 12.3797 13.2244 12.3655 13.2125 12.3536V12.3536ZM7.9125 7.91458C7.25 8.57551 6.37187 8.93958 5.4375 8.93958C4.50313 8.93958 3.625 8.57551 2.9625 7.91458C2.30156 7.25208 1.9375 6.37395 1.9375 5.43958C1.9375 4.5052 2.30156 3.62551 2.9625 2.96458C3.625 2.30364 4.50313 1.93958 5.4375 1.93958C6.37187 1.93958 7.25156 2.30208 7.9125 2.96458C8.57344 3.62708 8.9375 4.5052 8.9375 5.43958C8.9375 6.37395 8.57344 7.25364 7.9125 7.91458Z" fill="white"/>
</g>
<defs>
<clipPath id="clip0_55_21852">
<rect width="14" height="14" fill="white"/>
</clipPath>
</defs>
</svg>
