<svg width="15" height="15" viewBox="0 0 15 15" fill="none" xmlns="http://www.w3.org/2000/svg">
<g clip-path="url(#clip0_55_21912)">
<path d="M13.7125 12.569L9.65469 8.51116C10.2844 7.69709 10.625 6.70178 10.625 5.65491C10.625 4.40178 10.1359 3.22678 9.25156 2.34084C8.36719 1.45491 7.18906 0.967407 5.9375 0.967407C4.68594 0.967407 3.50781 1.45647 2.62344 2.34084C1.7375 3.22522 1.25 4.40178 1.25 5.65491C1.25 6.90647 1.73906 8.08459 2.62344 8.96897C3.50781 9.85491 4.68438 10.3424 5.9375 10.3424C6.98438 10.3424 7.97813 10.0018 8.79219 9.37366L12.85 13.4299C12.8619 13.4418 12.876 13.4513 12.8916 13.4577C12.9071 13.4641 12.9238 13.4675 12.9406 13.4675C12.9575 13.4675 12.9741 13.4641 12.9897 13.4577C13.0052 13.4513 13.0194 13.4418 13.0312 13.4299L13.7125 12.7502C13.7244 12.7383 13.7338 12.7242 13.7403 12.7086C13.7467 12.6931 13.7501 12.6764 13.7501 12.6596C13.7501 12.6428 13.7467 12.6261 13.7403 12.6105C13.7338 12.595 13.7244 12.5809 13.7125 12.569V12.569ZM8.4125 8.12991C7.75 8.79085 6.87187 9.15491 5.9375 9.15491C5.00313 9.15491 4.125 8.79085 3.4625 8.12991C2.80156 7.46741 2.4375 6.58928 2.4375 5.65491C2.4375 4.72053 2.80156 3.84084 3.4625 3.17991C4.125 2.51897 5.00313 2.15491 5.9375 2.15491C6.87187 2.15491 7.75156 2.51741 8.4125 3.17991C9.07344 3.84241 9.4375 4.72053 9.4375 5.65491C9.4375 6.58928 9.07344 7.46897 8.4125 8.12991Z" fill="white"/>
</g>
<defs>
<clipPath id="clip0_55_21912">
<rect width="14" height="14" fill="white" transform="translate(0.5 0.215332)"/>
</clipPath>
</defs>
</svg>
