<svg width="15" height="14" viewBox="0 0 15 14" fill="none" xmlns="http://www.w3.org/2000/svg">
<g clip-path="url(#clip0_55_21916)">
<path d="M13.7125 12.3541L9.65469 8.29631C10.2844 7.48225 10.625 6.48694 10.625 5.44006C10.625 4.18694 10.1359 3.01194 9.25156 2.126C8.36719 1.24006 7.18906 0.752563 5.9375 0.752563C4.68594 0.752563 3.50781 1.24163 2.62344 2.126C1.7375 3.01038 1.25 4.18694 1.25 5.44006C1.25 6.69163 1.73906 7.86975 2.62344 8.75413C3.50781 9.64006 4.68438 10.1276 5.9375 10.1276C6.98438 10.1276 7.97813 9.78694 8.79219 9.15881L12.85 13.2151C12.8619 13.227 12.876 13.2364 12.8916 13.2429C12.9071 13.2493 12.9238 13.2526 12.9406 13.2526C12.9575 13.2526 12.9741 13.2493 12.9897 13.2429C13.0052 13.2364 13.0194 13.227 13.0312 13.2151L13.7125 12.5354C13.7244 12.5235 13.7338 12.5093 13.7403 12.4938C13.7467 12.4783 13.7501 12.4616 13.7501 12.4448C13.7501 12.4279 13.7467 12.4113 13.7403 12.3957C13.7338 12.3802 13.7244 12.366 13.7125 12.3541V12.3541ZM8.4125 7.91506C7.75 8.576 6.87187 8.94006 5.9375 8.94006C5.00313 8.94006 4.125 8.576 3.4625 7.91506C2.80156 7.25256 2.4375 6.37444 2.4375 5.44006C2.4375 4.50569 2.80156 3.626 3.4625 2.96506C4.125 2.30413 5.00313 1.94006 5.9375 1.94006C6.87187 1.94006 7.75156 2.30256 8.4125 2.96506C9.07344 3.62756 9.4375 4.50569 9.4375 5.44006C9.4375 6.37444 9.07344 7.25413 8.4125 7.91506Z" fill="white"/>
</g>
<defs>
<clipPath id="clip0_55_21916">
<rect width="14" height="14" fill="white" transform="translate(0.5 0.000488281)"/>
</clipPath>
</defs>
</svg>
